<svg width="18" height="19" viewBox="0 0 18 19" fill="none" xmlns="http://www.w3.org/2000/svg">
<g id="ArrowRight">
<path id="Vector" d="M9.72723 14.9603C9.62177 14.8547 9.56253 14.7117 9.56253 14.5625C9.56253 14.4133 9.62177 14.2703 9.72723 14.1648L13.8295 10.0625H2.8125C2.66332 10.0625 2.52024 10.0033 2.41475 9.89776C2.30926 9.79227 2.25 9.6492 2.25 9.50001C2.25 9.35083 2.30926 9.20776 2.41475 9.10227C2.52024 8.99678 2.66332 8.93751 2.8125 8.93751H13.8295L9.72723 4.83525C9.67499 4.78302 9.63356 4.721 9.6053 4.65276C9.57703 4.58451 9.56248 4.51136 9.56249 4.43749C9.56249 4.36362 9.57704 4.29047 9.60532 4.22223C9.63359 4.15398 9.67502 4.09197 9.72726 4.03974C9.7795 3.98751 9.84151 3.94608 9.90976 3.91781C9.97801 3.88954 10.0512 3.875 10.125 3.875C10.1989 3.875 10.272 3.88956 10.3403 3.91783C10.4085 3.9461 10.4705 3.98754 10.5228 4.03977L15.5853 9.10227C15.5871 9.10409 15.5886 9.10612 15.5904 9.10797C15.6015 9.11937 15.6123 9.13108 15.6224 9.14337C15.6281 9.15024 15.633 9.15752 15.6383 9.16459C15.644 9.17221 15.6499 9.17969 15.6552 9.18762C15.6607 9.1958 15.6654 9.20431 15.6705 9.21272C15.6748 9.22007 15.6794 9.22724 15.6835 9.23483C15.688 9.24328 15.6919 9.252 15.6959 9.26061C15.6997 9.26865 15.7037 9.27654 15.7072 9.28475C15.7106 9.29306 15.7134 9.30157 15.7164 9.31002C15.7196 9.31888 15.723 9.32767 15.7257 9.33673C15.7283 9.34514 15.7301 9.35369 15.7323 9.3622C15.7346 9.37147 15.7372 9.38067 15.7391 9.39012C15.741 9.39994 15.7422 9.40983 15.7436 9.41968C15.7448 9.42799 15.7464 9.43612 15.7472 9.4445C15.749 9.46297 15.75 9.48147 15.75 9.50001C15.75 9.51855 15.749 9.53706 15.7472 9.55553C15.7464 9.56391 15.7448 9.57204 15.7436 9.58035C15.7422 9.5902 15.741 9.60009 15.7391 9.60991C15.7372 9.61935 15.7346 9.62855 15.7323 9.63782C15.7301 9.64634 15.7283 9.65489 15.7257 9.6633C15.723 9.67236 15.7196 9.68115 15.7164 9.69001C15.7134 9.69845 15.7106 9.70697 15.7072 9.71528C15.7037 9.72348 15.6997 9.73138 15.6959 9.73941C15.6919 9.74803 15.688 9.75675 15.6835 9.7652C15.6794 9.77278 15.6748 9.77996 15.6705 9.78731C15.6654 9.79572 15.6607 9.80423 15.6552 9.8124C15.6499 9.82033 15.644 9.82782 15.6383 9.83544C15.633 9.84251 15.6281 9.84979 15.6224 9.85666C15.6121 9.86919 15.6012 9.8811 15.5898 9.89271C15.5882 9.89432 15.5869 9.89614 15.5853 9.89775L10.5228 14.9603C10.4705 15.0125 10.4085 15.0539 10.3403 15.0822C10.272 15.1105 10.1989 15.125 10.125 15.125C10.0511 15.125 9.97798 15.1105 9.90972 15.0822C9.84147 15.0539 9.77946 15.0125 9.72723 14.9603Z" fill="#19242F"/>
</g>
</svg>
