<svg width="60" height="60" viewBox="0 0 60 60" fill="none" xmlns="http://www.w3.org/2000/svg">
<g id="ListPlus">
<path id="Vector" d="M52.5 15.0015C52.5 14.5042 52.3024 14.0273 51.9508 13.6756C51.5992 13.324 51.1223 13.1265 50.625 13.1265H9.375C8.87772 13.1265 8.4008 13.324 8.04917 13.6756C7.69754 14.0273 7.5 14.5042 7.5 15.0015C7.5 15.4987 7.69754 15.9757 8.04917 16.3273C8.4008 16.6789 8.87772 16.8765 9.375 16.8765H50.625C51.1223 16.8765 51.5992 16.6789 51.9508 16.3273C52.3024 15.9757 52.5 15.4987 52.5 15.0015ZM50.625 31.8765H9.375C8.87772 31.8765 8.4008 31.6789 8.04917 31.3273C7.69754 30.9757 7.5 30.4987 7.5 30.0015C7.5 29.5042 7.69754 29.0273 8.04917 28.6756C8.4008 28.324 8.87772 28.1265 9.375 28.1265H50.625C51.1223 28.1265 51.5992 28.324 51.9508 28.6756C52.3025 29.0273 52.5 29.5042 52.5 30.0015C52.5 30.4987 52.3025 30.9757 51.9508 31.3273C51.5992 31.6789 51.1223 31.8765 50.625 31.8765ZM26.25 43.1265H50.625C51.1223 43.1265 51.5992 43.324 51.9508 43.6756C52.3025 44.0273 52.5 44.5042 52.5 45.0015C52.5 45.4987 52.3025 45.9757 51.9508 46.3273C51.5992 46.6789 51.1223 46.8765 50.625 46.8765H26.25C25.7527 46.8765 25.2758 46.6789 24.9242 46.3273C24.5725 45.9757 24.375 45.4987 24.375 45.0015C24.375 44.5042 24.5725 44.0273 24.9242 43.6756C25.2758 43.324 25.7527 43.1265 26.25 43.1265Z" fill="white"/>
</g>
</svg>
